# Blender v2.80 (sub 75) OBJ File: 'hover.blend'
# www.blender.org
mtllib hovercar.mtl
o Cube
v 0.782163 0.806453 -1.305993
v 0.782163 0.027992 -1.000000
v 0.782163 0.806453 1.326962
v 0.782163 0.027992 1.326962
v 0.782163 0.027992 -1.305993
v 0.782163 1.503276 -1.000000
v 0.782163 1.503276 -1.305993
v 0.782163 0.806453 0.162292
v 0.782163 1.503276 0.162292
v 0.782163 1.881099 -1.000000
v 0.782163 1.881099 -1.138960
v 0.782163 0.171425 3.502504
v 0.782163 0.027992 3.502504
v 2.827282 0.806453 -1.305993
v 2.827282 0.027992 -1.305993
v 2.827282 0.806453 0.102664
v 2.827282 0.027992 0.102664
v 2.585051 0.027992 0.247674
v 2.585051 0.806453 0.247674
v 2.585051 0.806453 -1.305993
v 2.585051 0.027992 -1.305993
v 2.827282 1.503319 -1.305993
v 2.585051 1.503319 -1.305993
v -0.782163 0.806453 -1.305993
v -0.782163 0.027992 -1.000000
v -0.782163 0.806453 1.326962
v -0.782163 0.027992 1.326962
v -0.782163 0.027992 -1.305993
v -0.782163 1.503276 -1.000000
v -0.782163 1.503276 -1.305993
v -0.782163 0.806453 0.162292
v -0.782163 1.503276 0.162292
v -0.782163 1.881099 -1.000000
v -0.782163 1.881099 -1.138960
v -0.782163 0.171425 3.502504
v -0.782163 0.027992 3.502504
v -2.827282 0.806453 -1.305993
v -2.827282 0.027992 -1.305993
v -2.827282 0.806453 0.102664
v -2.827282 0.027992 0.102664
v -2.585051 0.027992 0.247674
v -2.585051 0.806453 0.247674
v -2.585051 0.806453 -1.305993
v -2.585051 0.027992 -1.305993
v -2.827282 1.503319 -1.305993
v -2.585051 1.503319 -1.305993
v 0.000000 0.027992 -1.000000
v 0.000000 0.806453 1.326962
v 0.000000 0.027992 1.326962
v 0.000000 0.806453 -1.305993
v 0.000000 0.027992 -1.305993
v 0.000000 1.503276 -1.000000
v 0.000000 1.503276 -1.305993
v 0.000000 1.503276 0.162292
v 0.000000 1.881099 -1.138960
v 0.000000 1.881099 -1.000000
v 0.000000 0.171425 3.502504
v 0.000000 0.027992 3.502504
vt 0.498367 0.801827
vt 0.584932 0.801827
vt 0.584932 0.817207
vt 0.498367 0.817207
vt 0.881641 0.204168
vt 0.860200 0.207720
vt 0.871962 0.166958
vt 0.874383 0.167070
vt 0.902938 0.268194
vt 0.886996 0.257516
vt 0.902938 0.199666
vt 0.874872 0.243468
vt 0.874283 0.243517
vt 0.874482 0.243326
vt 0.874762 0.243353
vt 0.874339 0.242595
vt 0.874976 0.242585
vt 0.874831 0.242793
vt 0.874438 0.242764
vt 0.510061 0.146658
vt 0.510061 0.208982
vt 0.447442 0.208982
vt 0.447442 0.146658
vt 0.584932 0.801827
vt 0.584932 0.835693
vt 0.584932 0.835693
vt 0.829489 0.553614
vt 0.829489 0.630734
vt 0.700590 0.553614
vt 0.584932 0.673191
vt 0.584932 0.673191
vt 0.832304 0.272976
vt 0.849792 0.265018
vt 0.847506 0.271917
vt 0.836669 0.281107
vt 0.880125 0.142060
vt 0.874348 0.243094
vt 0.874385 0.243099
vt 0.883664 0.260603
vt 0.584932 0.544292
vt 0.784466 0.663742
vt 0.621381 0.533608
vt 0.621381 0.447452
vt 0.820915 0.447452
vt 0.820915 0.533608
vt 0.303103 0.208982
vt 0.303103 0.146658
vt 0.873365 0.141302
vt 0.498367 0.835693
vt 0.498367 0.801827
vt 0.498367 0.673191
vt 0.510061 0.264769
vt 0.447442 0.264769
vt 0.498367 0.544292
vt 0.498367 0.303515
vt 0.584932 0.303515
vt 0.896898 0.274660
vt 0.784466 0.835693
vt 0.411801 0.817207
vt 0.411801 0.801827
vt 0.103648 0.204168
vt 0.110906 0.167070
vt 0.113327 0.166958
vt 0.125088 0.207720
vt 0.082351 0.268194
vt 0.082351 0.199666
vt 0.098293 0.257516
vt 0.110416 0.243468
vt 0.110527 0.243353
vt 0.110807 0.243326
vt 0.111006 0.243517
vt 0.110950 0.242595
vt 0.110851 0.242764
vt 0.110458 0.242793
vt 0.110313 0.242585
vt 0.572681 0.146658
vt 0.572681 0.208982
vt 0.411801 0.801827
vt 0.411801 0.835693
vt 0.411801 0.835693
vt 0.155800 0.553614
vt 0.284699 0.553614
vt 0.155800 0.630734
vt 0.411801 0.673191
vt 0.411801 0.673191
vt 0.152985 0.272976
vt 0.148620 0.281107
vt 0.137783 0.271917
vt 0.135497 0.265018
vt 0.105164 0.142060
vt 0.110904 0.243099
vt 0.110941 0.243094
vt 0.101625 0.260603
vt 0.411801 0.544292
vt 0.212267 0.663742
vt 0.363908 0.533608
vt 0.164374 0.533608
vt 0.164374 0.447452
vt 0.363908 0.447452
vt 0.717020 0.146658
vt 0.717020 0.208982
vt 0.111924 0.141302
vt 0.572681 0.264769
vt 0.411801 0.303515
vt 0.088391 0.274660
vt 0.212267 0.835693
vn 0.0000 1.0000 0.0000
vn 1.0000 0.0000 0.0000
vn 0.0000 -1.0000 0.0000
vn 0.0000 0.0000 -1.0000
vn 0.5136 0.0000 0.8580
vn 0.0000 0.0000 1.0000
vn 0.1264 0.8976 0.4223
vn -1.0000 0.0000 0.0000
vn 0.0000 0.4043 -0.9146
vn 0.0000 0.8581 0.5134
vn 0.0000 0.9599 0.2802
vn -0.5136 0.0000 0.8580
vn -0.1264 0.8976 0.4223
usemtl Material
s off
f 56/1/1 10/2/1 11/3/1 55/4/1
f 4/5/2 3/6/2 12/7/2 13/8/2
f 47/9/3 2/10/3 4/5/3 49/11/3
f 21/12/4 20/13/4 14/14/4 15/15/4
f 19/16/5 18/17/5 17/18/5 16/19/5
f 51/20/4 50/21/4 1/22/4 5/23/4
f 6/24/2 7/25/2 11/3/2 10/2/2
f 1/26/2 7/25/2 6/24/2
f 8/27/2 9/28/2 3/29/2
f 1/26/2 6/24/2 9/30/2 8/31/2
f 52/32/6 6/33/6 10/34/6 56/35/6
f 49/11/3 4/5/3 13/8/3 58/36/3
f 15/15/2 14/14/2 16/19/2 17/18/2
f 18/17/3 21/12/3 15/15/3 17/18/3
f 14/14/4 20/13/4 23/37/4 22/38/4
f 2/10/3 5/39/3 21/12/3
f 3/40/1 19/41/1 8/31/1
f 4/5/3 2/10/3 21/12/3 18/17/3
f 3/42/5 4/43/5 18/44/5 19/45/5
f 5/23/4 1/22/4 20/46/4 21/47/4
f 23/37/7 19/16/7 16/19/7 22/38/7
f 16/19/2 14/14/2 22/38/2
f 20/13/8 19/16/8 23/37/8
f 13/8/6 12/7/6 57/48/6 58/36/6
f 7/25/9 53/49/9 55/4/9 11/3/9
f 6/24/1 52/50/1 54/51/1 9/30/1
f 1/22/4 50/21/4 53/52/4 7/53/4
f 9/30/10 54/51/10 48/54/10 3/40/10
f 3/40/11 48/54/11 57/55/11 12/56/11
f 2/10/3 47/9/3 51/57/3 5/39/3
f 1/26/1 8/31/1 19/41/1 20/58/1
f 56/1/1 55/4/1 34/59/1 33/60/1
f 27/61/8 36/62/8 35/63/8 26/64/8
f 47/65/3 49/66/3 27/61/3 25/67/3
f 44/68/4 38/69/4 37/70/4 43/71/4
f 42/72/12 39/73/12 40/74/12 41/75/12
f 51/20/4 28/76/4 24/77/4 50/21/4
f 29/78/8 33/60/8 34/59/8 30/79/8
f 24/80/8 29/78/8 30/79/8
f 31/81/8 26/82/8 32/83/8
f 24/80/8 31/84/8 32/85/8 29/78/8
f 52/86/6 56/87/6 33/88/6 29/89/6
f 49/66/3 58/90/3 36/62/3 27/61/3
f 38/69/8 40/74/8 39/73/8 37/70/8
f 41/75/3 40/74/3 38/69/3 44/68/3
f 37/70/4 45/91/4 46/92/4 43/71/4
f 25/67/3 44/68/3 28/93/3
f 26/94/1 31/84/1 42/95/1
f 27/61/3 41/75/3 44/68/3 25/67/3
f 26/96/12 42/97/12 41/98/12 27/99/12
f 28/76/4 44/100/4 43/101/4 24/77/4
f 46/92/13 45/91/13 39/73/13 42/72/13
f 39/73/8 45/91/8 37/70/8
f 43/71/2 46/92/2 42/72/2
f 36/62/6 58/90/6 57/102/6 35/63/6
f 30/79/9 34/59/9 55/4/9 53/49/9
f 29/78/1 32/85/1 54/51/1 52/50/1
f 24/77/4 30/103/4 53/52/4 50/21/4
f 32/85/10 26/94/10 48/54/10 54/51/10
f 26/94/11 35/104/11 57/55/11 48/54/11
f 25/67/3 28/93/3 51/105/3 47/65/3
f 24/80/1 43/106/1 42/95/1 31/84/1
