# Blender v2.82 (sub 7) OBJ File: ''
# www.blender.org
mtllib track0.mtl
o Cube
v 4.689755 0.330706 -11.286860
v 4.689755 -0.361955 -11.286860
v 4.689755 0.330706 1.000000
v 4.689755 -0.361955 1.000000
v -4.636683 0.330706 -11.286860
v -4.636683 -0.361955 -11.286860
v -4.636683 0.330706 1.000000
v -4.636683 -0.361955 1.000000
v 4.689755 -0.361955 -11.286860
v -4.636683 -0.361955 -11.286860
v 4.689755 0.330706 -11.286860
v -4.636683 0.330706 -11.286860
v 8.958397 -0.361955 -19.169785
v 1.002065 -0.361955 -24.035919
v 8.958397 0.330706 -19.169785
v 1.002065 0.330706 -24.035919
v 20.064163 -0.361955 -27.861904
v 13.430140 -0.361955 -34.417225
v 20.064163 0.330706 -27.861904
v 13.430140 0.330706 -34.417225
v 20.064163 -0.361955 -27.861904
v 13.430140 -0.361955 -34.417225
v 20.064163 0.330706 -27.861904
v 13.430140 0.330706 -34.417225
v 28.907108 3.076705 -36.811016
v 22.273083 3.076705 -43.366337
v 28.907108 3.769367 -36.811016
v 22.273083 3.769367 -43.366337
v 41.931648 3.076705 -49.991936
v 35.297623 3.076705 -56.547256
v 41.931648 3.769367 -49.991936
v 35.297623 3.769367 -56.547256
v 41.931648 3.076705 -49.991936
v 35.297623 3.076705 -56.547256
v 41.931648 3.769367 -49.991936
v 35.297623 3.769367 -56.547256
v 50.937943 0.366477 -59.106361
v 44.303917 0.366477 -65.661682
v 50.937943 1.059139 -59.106361
v 44.303917 1.059139 -65.661682
v 62.717323 0.366477 -71.027168
v 56.083298 0.366477 -77.582489
v 62.717323 1.059139 -71.027168
v 56.083298 1.059139 -77.582489
v 65.656731 0.445002 -89.607719
v 65.656731 0.980615 -89.607719
v 69.483559 0.445002 -88.846535
v 69.483559 0.980615 -88.846535
v 72.727806 0.445002 -86.678795
v 72.727806 0.980615 -86.678795
v 74.895470 0.445002 -83.434547
v 74.895470 0.980615 -83.434547
v 75.656731 0.445002 -79.607719
v 75.656731 0.980615 -79.607719
v 74.895470 0.445002 -75.780891
v 74.895470 0.980615 -75.780891
v 72.727806 0.445002 -72.536644
v 72.727806 0.980615 -72.536644
v 69.483559 0.445002 -70.368904
v 69.483559 0.980615 -70.368904
v 65.656731 0.445002 -69.607719
v 65.656731 0.980615 -69.607719
v 61.829903 0.445002 -70.368904
v 61.829903 0.980615 -70.368904
v 58.585655 0.445002 -72.536644
v 58.585655 0.980615 -72.536644
v 56.417915 0.445002 -75.780891
v 56.417915 0.980615 -75.780891
v 55.656731 0.445002 -79.607719
v 55.656731 0.980615 -79.607719
v 56.417915 0.445002 -83.434547
v 56.417915 0.980615 -83.434547
v 58.585655 0.445002 -86.678795
v 58.585655 0.980615 -86.678795
v 61.829903 0.445002 -88.846535
v 61.829903 0.980615 -88.846535
vt 0.625000 0.500000
vt 0.875000 0.500000
vt 0.875000 0.750000
vt 0.625000 0.750000
vt 0.375000 0.750000
vt 0.625000 1.000000
vt 0.375000 1.000000
vt 0.375000 0.000000
vt 0.625000 0.000000
vt 0.625000 0.250000
vt 0.375000 0.250000
vt 0.125000 0.500000
vt 0.375000 0.500000
vt 0.125000 0.750000
vt 0.375000 0.500000
vt 0.625000 0.500000
vt 0.875000 0.500000
vt 0.625000 0.500000
vt 0.875000 0.500000
vt 0.625000 0.250000
vt 0.375000 0.250000
vt 0.125000 0.500000
vt 0.375000 0.250000
vt 0.625000 0.250000
vt 0.625000 0.250000
vt 0.375000 0.250000
vt 0.375000 0.500000
vt 0.125000 0.500000
vt 0.625000 0.250000
vt 0.375000 0.250000
vt 0.125000 0.500000
vt 0.375000 0.500000
vt 0.625000 0.500000
vt 0.875000 0.500000
vt 0.875000 0.500000
vt 0.625000 0.500000
vt 0.625000 0.500000
vt 0.875000 0.500000
vt 0.125000 0.500000
vt 0.375000 0.500000
vt 0.375000 0.500000
vt 0.375000 0.250000
vt 0.625000 0.250000
vt 0.125000 0.500000
vt 0.375000 0.500000
vt 0.125000 0.500000
vt 0.125000 0.500000
vt 0.375000 0.500000
vt 0.375000 0.250000
vt 0.625000 0.250000
vt 0.625000 0.500000
vt 0.375000 0.500000
vt 0.375000 0.500000
vt 0.125000 0.500000
vt 0.125000 0.500000
vt 0.625000 0.500000
vt 0.875000 0.500000
vt 0.375000 0.250000
vt 0.875000 0.500000
vt 0.625000 0.500000
vt 0.625000 0.500000
vt 0.875000 0.500000
vt 0.625000 0.250000
vt 0.625000 0.250000
vt 0.375000 0.250000
vt 0.375000 0.250000
vt 0.625000 0.250000
vt 0.875000 0.500000
vt 1.000000 0.500000
vt 1.000000 1.000000
vt 0.937500 1.000000
vt 0.937500 0.500000
vt 0.875000 1.000000
vt 0.875000 0.500000
vt 0.812500 1.000000
vt 0.812500 0.500000
vt 0.750000 1.000000
vt 0.750000 0.500000
vt 0.687500 1.000000
vt 0.687500 0.500000
vt 0.625000 1.000000
vt 0.625000 0.500000
vt 0.562500 1.000000
vt 0.562500 0.500000
vt 0.500000 1.000000
vt 0.500000 0.500000
vt 0.437500 1.000000
vt 0.437500 0.500000
vt 0.375000 1.000000
vt 0.375000 0.500000
vt 0.312500 1.000000
vt 0.312500 0.500000
vt 0.250000 1.000000
vt 0.250000 0.500000
vt 0.187500 1.000000
vt 0.187500 0.500000
vt 0.125000 1.000000
vt 0.125000 0.500000
vt 0.341844 0.471732
vt 0.250000 0.490000
vt 0.158156 0.471732
vt 0.080294 0.419706
vt 0.028269 0.341844
vt 0.010000 0.250000
vt 0.028269 0.158156
vt 0.080294 0.080294
vt 0.158156 0.028268
vt 0.250000 0.010000
vt 0.341844 0.028268
vt 0.419706 0.080294
vt 0.471731 0.158156
vt 0.490000 0.250000
vt 0.471731 0.341844
vt 0.419706 0.419706
vt 0.062500 1.000000
vt 0.062500 0.500000
vt 0.000000 1.000000
vt 0.000000 0.500000
vt 0.750000 0.490000
vt 0.841844 0.471732
vt 0.919706 0.419706
vt 0.971731 0.341844
vt 0.990000 0.250000
vt 0.971731 0.158156
vt 0.919706 0.080294
vt 0.841844 0.028268
vt 0.750000 0.010000
vt 0.658156 0.028268
vt 0.580294 0.080294
vt 0.528269 0.158156
vt 0.510000 0.250000
vt 0.528269 0.341844
vt 0.580294 0.419706
vt 0.658156 0.471732
vn 0.0000 1.0000 0.0000
vn 0.0000 0.0000 1.0000
vn -1.0000 0.0000 0.0000
vn 0.0000 -1.0000 0.0000
vn 1.0000 0.0000 0.0000
vn -0.6411 0.0000 -0.7675
vn 0.8794 0.0000 0.4762
vn -0.9145 0.0000 -0.4045
vn 0.6163 0.0000 0.7875
vn -0.1853 0.9646 0.1875
vn 0.7029 0.0000 -0.7113
vn 0.7113 0.0000 0.7029
vn -0.7113 0.0000 -0.7029
vn 0.1853 -0.9646 -0.1875
vn -0.7029 0.0000 0.7113
vn 0.1454 0.9784 -0.1472
vn -0.1454 -0.9784 0.1472
vn 0.1951 0.0000 -0.9808
vn 0.5556 0.0000 -0.8315
vn 0.8315 0.0000 -0.5556
vn 0.9808 0.0000 -0.1951
vn 0.9808 0.0000 0.1951
vn 0.8315 0.0000 0.5556
vn 0.5556 0.0000 0.8315
vn 0.1951 0.0000 0.9808
vn -0.1951 0.0000 0.9808
vn -0.5556 0.0000 0.8315
vn -0.8315 0.0000 0.5556
vn -0.9808 0.0000 0.1951
vn -0.9808 0.0000 -0.1951
vn -0.8315 0.0000 -0.5556
vn -0.5556 0.0000 -0.8315
vn -0.1951 0.0000 -0.9808
usemtl Material
s off
f 1/1/1 5/2/1 7/3/1 3/4/1
f 4/5/2 3/4/2 7/6/2 8/7/2
f 8/8/3 7/9/3 5/10/3 6/11/3
f 6/12/4 2/13/4 4/5/4 8/14/4
f 2/13/5 1/1/5 3/4/5 4/5/5
f 1/1/2 2/13/2 9/15/2 11/16/2
f 12/17/1 11/16/1 15/18/1 16/19/1
f 6/11/2 5/10/2 12/20/2 10/21/2
f 2/13/2 6/12/2 10/22/2 9/15/2
f 5/2/2 1/1/2 11/16/2 12/17/2
f 14/23/6 16/24/6 20/25/6 18/26/6
f 11/16/7 9/15/7 13/27/7 15/18/7
f 10/21/8 12/20/8 16/24/8 14/23/8
f 9/15/4 10/22/4 14/28/4 13/27/4
f 18/26/2 20/25/2 24/29/2 22/30/2
f 13/27/4 14/28/4 18/31/4 17/32/4
f 16/19/1 15/18/1 19/33/1 20/34/1
f 15/18/9 13/27/9 17/32/9 19/33/9
f 24/35/10 23/36/10 27/37/10 28/38/10
f 17/32/2 18/31/2 22/39/2 21/40/2
f 20/34/2 19/33/2 23/36/2 24/35/2
f 19/33/2 17/32/2 21/40/2 23/36/2
f 25/41/11 26/42/11 28/38/11 27/37/11
f 23/36/12 21/40/12 25/41/12 27/37/12
f 22/30/13 24/29/13 28/43/13 26/42/13
f 21/40/14 22/39/14 26/44/14 25/41/14
f 29/45/2 30/46/2 34/47/2 33/48/2
f 42/49/11 44/50/11 43/51/11 41/52/11
f 37/53/4 38/54/4 42/55/4 41/52/4
f 29/45/15 31/56/15 32/57/15 30/58/15
f 36/59/16 35/60/16 39/61/16 40/62/16
f 32/57/2 31/56/2 35/60/2 36/59/2
f 31/56/2 29/45/2 33/48/2 35/60/2
f 30/58/2 32/63/2 36/64/2 34/65/2
f 38/66/13 40/67/13 44/50/13 42/49/13
f 35/60/12 33/48/12 37/53/12 39/61/12
f 34/65/13 36/64/13 40/67/13 38/66/13
f 33/48/17 34/47/17 38/54/17 37/53/17
f 40/62/1 39/61/1 43/51/1 44/68/1
f 39/61/12 37/53/12 41/52/12 43/51/12
f 45/69/18 46/70/18 48/71/18 47/72/18
f 47/72/19 48/71/19 50/73/19 49/74/19
f 49/74/20 50/73/20 52/75/20 51/76/20
f 51/76/21 52/75/21 54/77/21 53/78/21
f 53/78/22 54/77/22 56/79/22 55/80/22
f 55/80/23 56/79/23 58/81/23 57/82/23
f 57/82/24 58/81/24 60/83/24 59/84/24
f 59/84/25 60/83/25 62/85/25 61/86/25
f 61/86/26 62/85/26 64/87/26 63/88/26
f 63/88/27 64/87/27 66/89/27 65/90/27
f 65/90/28 66/89/28 68/91/28 67/92/28
f 67/92/29 68/91/29 70/93/29 69/94/29
f 69/94/30 70/93/30 72/95/30 71/96/30
f 71/96/31 72/95/31 74/97/31 73/98/31
f 48/99/1 46/100/1 76/101/1 74/102/1 72/103/1 70/104/1 68/105/1 66/106/1 64/107/1 62/108/1 60/109/1 58/110/1 56/111/1 54/112/1 52/113/1 50/114/1
f 73/98/32 74/97/32 76/115/32 75/116/32
f 75/116/33 76/115/33 46/117/33 45/118/33
f 45/119/4 47/120/4 49/121/4 51/122/4 53/123/4 55/124/4 57/125/4 59/126/4 61/127/4 63/128/4 65/129/4 67/130/4 69/131/4 71/132/4 73/133/4 75/134/4
